<svg xmlns="http://www.w3.org/2000/svg" width="1602.72" height="512" viewBox="0 0 1602.72 512">
  <path id="Smarty" fill="#FFFFFF" class="cls-1" d="M327.852,403.69a67.98,67.98,0,0,0-135.958,0V512l67.979-67.692L327.852,512V403.69ZM161.608,390.335a67.778,67.778,0,0,0-67.762-117.4C61.436,291.65-.048,327.158-0.048,327.158l92.565,24.811-24.8,92.591ZM93.682,239.19a67.659,67.659,0,0,0,67.643-117.2L67.6,67.861l24.759,92.432-92.4,24.765Zm98.212-130.883a67.98,67.98,0,0,0,135.958,0V0L259.873,67.692,191.894,0v108.31Zm163.875,18.116A64.89,64.89,0,0,0,331.8,215.349a65.693,65.693,0,0,0,89.449,23.83l90.734-52.08-89.45-23.829L446.5,74.341Zm65.469,146.095A65.394,65.394,0,0,0,332.2,296.236a64.6,64.6,0,0,0,23.859,88.526c31.176,17.892,90.321,51.842,90.321,51.842l-23.859-88.523,89.043-23.721S452.415,290.411,421.238,272.518Zm392.092-96.4a77,77,0,0,0-26.588-16.184,97.5,97.5,0,0,0-34.1-5.78q-16.33,0-29.045,5.057a65.646,65.646,0,0,0-21.458,13.439,57.507,57.507,0,0,0-17.846,41.471q0,14.305,4.119,24.059a47.967,47.967,0,0,0,10.909,16.257,57.071,57.071,0,0,0,15.462,10.548,151.686,151.686,0,0,0,17.629,6.936q8.958,2.892,17.629,5.347a81.654,81.654,0,0,1,15.461,6,33.275,33.275,0,0,1,10.91,8.743q4.119,5.2,4.118,13.438,0,14.739-9.1,22.614T745.7,335.936a51.918,51.918,0,0,1-18.568-2.963A75.708,75.708,0,0,1,713.7,326.4q-5.711-3.611-9.9-6.575t-7.8-2.962a9.356,9.356,0,0,0-4.985,1.372,14.391,14.391,0,0,0-3.83,3.4L675.91,340.271a81.663,81.663,0,0,0,13.8,11.271,96.684,96.684,0,0,0,16.618,8.67,103.4,103.4,0,0,0,18.568,5.563,99.272,99.272,0,0,0,19.652,1.951q17.34,0,30.778-5.275A66.652,66.652,0,0,0,798.085,348a61.184,61.184,0,0,0,14.161-21.53,72.055,72.055,0,0,0,4.841-26.516q0-13-4.118-22.108a47.179,47.179,0,0,0-10.91-15.39,61.4,61.4,0,0,0-15.462-10.4,171.143,171.143,0,0,0-17.7-7.225q-9.033-3.1-17.7-5.852a101.092,101.092,0,0,1-15.462-6.213,34.354,34.354,0,0,1-10.909-8.381,18.465,18.465,0,0,1-4.119-12.283,27.263,27.263,0,0,1,2.023-10.621,21.65,21.65,0,0,1,6.142-8.308,29.8,29.8,0,0,1,10.115-5.419,45.63,45.63,0,0,1,14.088-1.951,48.3,48.3,0,0,1,15.534,2.24,69.957,69.957,0,0,1,11.488,4.985q4.911,2.746,8.525,4.985a12.649,12.649,0,0,0,6.5,2.24,9.266,9.266,0,0,0,4.985-1.3,10.742,10.742,0,0,0,3.685-4.48Zm67.192,189.3V256.894a48.442,48.442,0,0,1,12.5-10.476,28.59,28.59,0,0,1,14.378-3.829q11.7,0,17.7,6.791t6,21.675v94.359h35.836V271.055a34.534,34.534,0,0,1,2.023-12.282,24.747,24.747,0,0,1,5.563-8.887,24.272,24.272,0,0,1,8.237-5.419,27.192,27.192,0,0,1,10.187-1.878q12,0,18.207,7.152t6.21,21.314v94.359h35.7V271.055a76.894,76.894,0,0,0-3.4-23.842,48.435,48.435,0,0,0-9.9-17.629,41.824,41.824,0,0,0-16.04-10.982,59.213,59.213,0,0,0-21.82-3.757,63.539,63.539,0,0,0-14.087,1.589,52.557,52.557,0,0,0-13.221,4.913,47.4,47.4,0,0,0-11.416,8.6,45.268,45.268,0,0,0-8.67,12.644A45.69,45.69,0,0,0,941,222.431q-9.031-7.587-23.047-7.586a46.293,46.293,0,0,0-12.211,1.517,49.271,49.271,0,0,0-10.4,4.118,52.421,52.421,0,0,0-9.1,6.214,84.354,84.354,0,0,0-8.164,7.947l-2.312-10.982q-2.168-6.5-9.1-6.5H844.831V365.414h35.691Zm323.828-93.636a69.6,69.6,0,0,0-3.69-23.12,50.908,50.908,0,0,0-10.76-18.135,49.407,49.407,0,0,0-17.27-11.849,59.631,59.631,0,0,0-23.19-4.263q-36.135,0-61.71,23.409l6.51,11.416a14.7,14.7,0,0,0,4.19,4.624,10.3,10.3,0,0,0,6.21,1.878,15.988,15.988,0,0,0,7.95-2.023q3.6-2.022,7.87-4.552a55.934,55.934,0,0,1,10.05-4.551,44.239,44.239,0,0,1,14.45-2.023q11.985,0,18.27,7.207,6.3,7.206,6.29,22.2v8.736q-25.29,0-42.34,4.35t-27.31,10.946q-10.26,6.6-14.67,14.787a34.779,34.779,0,0,0-4.4,16.6,44.866,44.866,0,0,0,3.18,17.544,34.495,34.495,0,0,0,8.88,12.614,37.4,37.4,0,0,0,13.66,7.611,56.841,56.841,0,0,0,17.34,2.536,73.916,73.916,0,0,0,14.45-1.3,57.129,57.129,0,0,0,12.28-3.9,67.084,67.084,0,0,0,11.2-6.431,121.2,121.2,0,0,0,11.05-8.886l3.18,10.548q1.44,4.626,4.34,6.141a17.237,17.237,0,0,0,7.95,1.518h16.04V271.778Zm-83.89,67.307q-5.565-4.074-5.56-13.535a15.871,15.871,0,0,1,2.67-8.876q2.67-4.074,9.03-7.132a68.969,68.969,0,0,1,16.84-5.022,144.942,144.942,0,0,1,26.08-1.964v24.816a71.984,71.984,0,0,1-7.73,6.9,46.341,46.341,0,0,1-7.95,4.906,38.7,38.7,0,0,1-8.74,2.987,48,48,0,0,1-10.11,1Q1126.02,343.161,1120.46,339.085Zm154.69,26.329V273.078q5.49-11.847,13.44-17.99a30.256,30.256,0,0,1,19.07-6.141,39.7,39.7,0,0,1,9.97,1.011,24.346,24.346,0,0,0,5.93,1.012,6.384,6.384,0,0,0,3.9-1.084,5.54,5.54,0,0,0,1.88-3.685l4.62-26.732q-7.23-5.056-18.21-5.058a39.222,39.222,0,0,0-23.98,7.948q-10.695,7.948-18.64,21.675l-2.17-17.918c-0.48-3.274-1.45-5.586-2.89-6.936s-4-2.023-7.66-2.023h-20.95V365.414h35.69Zm152.01-1.012a54.042,54.042,0,0,0,17.92-9.826l-10.69-17.34a12.514,12.514,0,0,0-2.17-2.384,4.1,4.1,0,0,0-2.6-.795,4.94,4.94,0,0,0-2.6.795q-1.3.8-2.97,1.662a29.47,29.47,0,0,1-3.9,1.661,16.713,16.713,0,0,1-5.56.8,11.769,11.769,0,0,1-9.25-3.9q-3.465-3.9-3.47-10.838V243.889h39.02V218.457h-39.02V171.784h-18.49a8.5,8.5,0,0,0-5.28,1.589,7.158,7.158,0,0,0-2.67,4.48l-7.51,40.46-23.85,3.9v14.161a6.85,6.85,0,0,0,7.08,7.514h15.03v82.8q0,19.219,10.41,30.128t29.62,10.91A66.7,66.7,0,0,0,1427.16,364.4Zm175.57-147.245h-28.61a10.19,10.19,0,0,0-6,1.878,10.541,10.541,0,0,0-3.83,4.769l-29.77,76.729c-1.06,2.7-2.04,5.347-2.96,7.948s-1.76,5.3-2.53,8.092q-0.87-4.044-2.02-8.092a67.831,67.831,0,0,0-2.75-7.8L1492.62,223.8a13.317,13.317,0,0,0-3.47-4.624q-2.31-2.022-6.65-2.023h-31.21l59.97,137.275-27.75,59.389h26.59q5.2,0,7.73-1.951a13.759,13.759,0,0,0,4.12-5.707Z"/>
</svg>
